<svg width="394" height="125" viewBox="0 0 394 125" fill="none" xmlns="http://www.w3.org/2000/svg">
<path d="M77.4817 25.0909V100H86.8453V65.8008L121.959 100H136.004L95.1483 60.2045L136.004 25.0909H121.959L86.8453 55.2667V25.0909H77.4817ZM182.804 44.4034L165.869 78.9318H160.931V70.7386H204.458V78.9318H199.739L182.804 44.4034ZM145.35 100L182.804 22.75L220.259 100H210.091L199.739 78.9318H165.869L155.518 100H145.35ZM231.982 25.0909V100H265.925C265.925 100 290.504 100.585 290.504 78.3466C290.504 68.1417 285.311 62.7283 279.714 59.8754C283.116 56.9492 285.823 52.3406 285.823 44.9886C285.823 25.0909 265.925 25.0909 265.925 25.0909H231.982ZM241.345 91.8068V64.8864H265.925C265.925 64.8864 281.141 65.4716 281.141 78.3466C281.141 91.2216 265.925 91.8068 265.925 91.8068H241.345ZM241.345 56.6932V33.2841H265.925C265.925 33.2841 276.459 34.4545 276.459 44.9886C276.459 55.5227 265.925 56.6932 265.925 56.6932H241.345ZM302.191 25.0909V100H311.554V25.0909H302.191ZM325.627 25.0909V100H334.991V69.5682H359.57C379.468 69.5682 372.445 92.9773 379.468 100H388.832C381.626 92.7944 385.503 73.8477 374.384 65.4716C379.578 62.3626 384.15 56.9126 384.15 47.3295C384.15 25.0909 359.57 25.0909 359.57 25.0909H325.627ZM334.991 61.375V33.2841H359.57C359.57 33.2841 374.786 34.4545 374.786 47.3295C374.786 60.2045 359.57 61.375 359.57 61.375H334.991Z" fill="white"/>
<path d="M60 100L30 62.5L2.6625 97.3375C4.36727 99.0423 6.67943 100 9.09034 100H60Z" fill="url(#paint0_linear_375_9)"/>
<path fill-rule="evenodd" clip-rule="evenodd" d="M60 25H7.5C3.35786 25 0 28.3579 0 32.5V90.9097C0 93.3206 0.95773 95.6327 2.6625 97.3375L30 62.5L60 25Z" fill="white"/>
<defs>
<linearGradient id="paint0_linear_375_9" x1="60" y1="100" x2="30" y2="62.5" gradientUnits="userSpaceOnUse">
<stop stop-color="white"/>
<stop offset="1" stop-color="#DBDBDB"/>
</linearGradient>
</defs>
</svg>
