<svg width="355" height="121" viewBox="0 0 355 121" fill="none" xmlns="http://www.w3.org/2000/svg">
<path d="M68.5594 97V24.2727H79.5324V59.0028H80.4202L110.924 24.2727H124.738L95.406 57.0142L124.845 97H111.635L88.1262 64.5071L79.5324 74.3793V97H68.5594ZM141.109 97H129.461L155.633 24.2727H168.311L194.483 97H182.835L162.274 37.483H161.706L141.109 97ZM143.062 68.5199H180.846V77.7528H143.062V68.5199ZM204.985 97V24.2727H231.619C236.78 24.2727 241.053 25.125 244.438 26.8295C247.824 28.5104 250.357 30.795 252.038 33.6832C253.719 36.5478 254.559 39.7794 254.559 43.3778C254.559 46.4081 254.003 48.965 252.89 51.0483C251.777 53.108 250.286 54.7651 248.416 56.0199C246.569 57.2509 244.533 58.1506 242.308 58.7188V59.429C244.722 59.5473 247.078 60.3286 249.374 61.7727C251.694 63.1932 253.612 65.2173 255.127 67.8452C256.642 70.473 257.4 73.669 257.4 77.4332C257.4 81.1501 256.524 84.4882 254.772 87.4474C253.044 90.383 250.369 92.715 246.747 94.4432C243.124 96.1477 238.496 97 232.862 97H204.985ZM215.958 87.5895H231.796C237.052 87.5895 240.816 86.5715 243.089 84.5355C245.362 82.4995 246.498 79.9545 246.498 76.9006C246.498 74.6042 245.918 72.4972 244.758 70.5795C243.598 68.6619 241.941 67.1349 239.786 65.9986C237.656 64.8622 235.122 64.294 232.187 64.294H215.958V87.5895ZM215.958 55.7358H230.66C233.122 55.7358 235.336 55.2623 237.301 54.3153C239.289 53.3684 240.863 52.0426 242.024 50.3381C243.207 48.6098 243.799 46.5739 243.799 44.2301C243.799 41.2235 242.746 38.7022 240.639 36.6662C238.532 34.6302 235.3 33.6122 230.944 33.6122H215.958V55.7358ZM281.388 24.2727V97H270.415V24.2727H281.388ZM297.368 97V24.2727H323.291C328.926 24.2727 333.601 25.2434 337.318 27.1847C341.059 29.1259 343.852 31.813 345.699 35.2457C347.546 38.6548 348.469 42.5966 348.469 47.071C348.469 51.5218 347.534 55.4399 345.663 58.8253C343.817 62.187 341.023 64.803 337.283 66.6733C333.566 68.5436 328.89 69.4787 323.256 69.4787H303.618V60.0327H322.261C325.813 60.0327 328.701 59.5237 330.926 58.5057C333.175 57.4877 334.821 56.008 335.862 54.0668C336.904 52.1255 337.425 49.7936 337.425 47.071C337.425 44.3248 336.892 41.9455 335.827 39.9332C334.785 37.9209 333.14 36.3821 330.891 35.3168C328.665 34.2277 325.742 33.6832 322.119 33.6832H308.341V97H297.368ZM333.27 64.1875L351.239 97H338.739L321.125 64.1875H333.27Z" fill="white"/>
<path d="M60 97L30 59.5L2.6625 94.3375C4.36727 96.0423 6.67943 97 9.09034 97H60Z" fill="url(#paint0_linear_375_9)"/>
<path fill-rule="evenodd" clip-rule="evenodd" d="M60 22H7.5C3.35786 22 0 25.3579 0 29.5V87.9097C0 90.3206 0.95773 92.6327 2.6625 94.3375L30 59.5L60 22Z" fill="white"/>
<defs>
<linearGradient id="paint0_linear_375_9" x1="60" y1="97" x2="30" y2="59.5" gradientUnits="userSpaceOnUse">
<stop stop-color="white"/>
<stop offset="1" stop-color="#DBDBDB"/>
</linearGradient>
</defs>
</svg>
