<svg width="963" height="283" viewBox="0 0 963 283" version="1.1" xmlns="http://www.w3.org/2000/svg" xmlns:xlink="http://www.w3.org/1999/xlink" xmlns:figma="http://www.figma.com/figma/ns">
<title>Regression</title>
<g id="Canvas" transform="translate(-3360 -1731)" figma:type="canvas">
<g id="Regression" figma:type="frame">
<g id="Email" figma:type="frame">
<g id="Ellipse" figma:type="ellipse">
<use xlink:href="#path0_fill" transform="translate(3360 1772)" fill="#309FDD"/>
</g>
<g id="Email" figma:type="text">
<use xlink:href="#path1_fill" transform="translate(3398 1842)" fill="#F5F5F5"/>
</g>
</g>
<g id="Arrow" figma:type="vector">
<use xlink:href="#path2_stroke" transform="translate(3570 1871)" fill="#666666"/>
</g>
<g id="Arrow" figma:type="vector">
<use xlink:href="#path2_stroke" transform="translate(3993 1872)" fill="#666666"/>
</g>
<g id="Machine" figma:type="frame">
<g id="Rectangle 2" figma:type="rounded-rectangle">
<use xlink:href="#path3_fill" transform="matrix(0.707107 -0.707107 0.707107 0.707107 3700 1872.42)" fill="#DD9336"/>
</g>
<g id="Machine Learning" figma:type="text">
<use xlink:href="#path4_fill" transform="translate(3759.42 1823.42)" fill="#F5F5F5"/>
</g>
</g>
<g id="Spam" figma:type="frame">
<g id="Rectangle 2" figma:type="rounded-rectangle">
<use xlink:href="#path3_fill" transform="translate(4123 1771)" fill="#6536DD"/>
</g>
<g id="Spam Level" figma:type="text">
<use xlink:href="#path5_fill" transform="translate(4154 1813)" fill="#F5F5F5"/>
</g>
</g>
</g>
</g>
<defs>
<path id="path0_fill" d="M 200 100C 200 155.228 155.228 200 100 200C 44.7715 200 0 155.228 0 100C 0 44.7715 44.7715 0 100 0C 155.228 0 200 44.7715 200 100Z"/>
<path id="path1_fill" d="M 7 43.5L 7 29.6L 23 29.6L 23 27.1L 7 27.1L 7 13.5L 24.25 13.5L 24.25 11L 4.35 11L 4.35 46L 24.5 46L 24.5 43.5L 7 43.5ZM 57.2102 20.45C 53.8602 20.45 50.6602 22.05 48.8602 25.55C 47.5602 22.25 44.7102 20.45 41.0602 20.45C 37.8602 20.45 34.8602 21.85 33.0102 25.3L 33.0102 21L 30.5102 21L 30.5102 46L 33.0102 46L 33.0102 32.05C 33.0102 25.65 36.6602 22.85 40.7602 22.85C 44.6102 22.85 47.1602 25.4 47.1602 30.15L 47.1602 46L 49.6602 46L 49.6602 32.05C 49.6602 25.65 52.9602 22.85 57.1602 22.85C 61.0602 22.85 63.8102 25.4 63.8102 30.15L 63.8102 46L 66.3102 46L 66.3102 30.15C 66.3102 23.9 62.5102 20.45 57.2102 20.45ZM 95.3812 21L 95.3812 26.65C 93.2812 22.9 89.4312 20.45 84.6312 20.45C 77.5312 20.45 71.6813 26.1 71.6813 33.5C 71.6813 40.9 77.5312 46.55 84.6312 46.55C 89.4312 46.55 93.2812 44.1 95.3812 40.35L 95.3812 46L 97.9313 46L 97.9313 21L 95.3812 21ZM 84.8312 44.15C 78.8812 44.15 74.2313 39.45 74.2313 33.5C 74.2313 27.55 78.8812 22.85 84.8312 22.85C 90.7812 22.85 95.3812 27.55 95.3812 33.5C 95.3812 39.45 90.7812 44.15 84.8312 44.15ZM 106.858 14.95C 107.958 14.95 108.858 14.05 108.858 12.95C 108.858 11.9 107.958 11 106.858 11C 105.758 11 104.858 11.9 104.858 12.95C 104.858 14.05 105.758 14.95 106.858 14.95ZM 105.608 46L 108.108 46L 108.108 21L 105.608 21L 105.608 46ZM 115.813 46L 118.313 46L 118.313 9.5L 115.813 9.5L 115.813 46Z"/>
<path id="path2_stroke" d="M 121.414 1.41421C 122.195 0.633165 122.195 -0.633165 121.414 -1.41421L 108.686 -14.1421C 107.905 -14.9232 106.639 -14.9232 105.858 -14.1421C 105.077 -13.3611 105.077 -12.0948 105.858 -11.3137L 117.172 0L 105.858 11.3137C 105.077 12.0948 105.077 13.3611 105.858 14.1421C 106.639 14.9232 107.905 14.9232 108.686 14.1421L 121.414 1.41421ZM 0 2L 120 2L 120 -2L 0 -2L 0 2Z"/>
<path id="path3_fill" d="M 0 10C 0 4.47715 4.47715 0 10 0L 190 0C 195.523 0 200 4.47715 200 10L 200 190C 200 195.523 195.523 200 190 200L 10 200C 4.47715 200 0 195.523 0 190L 0 10Z"/>
<path id="path4_fill" d="M 32.1281 9L 29.4481 9L 19.4481 25.56L 9.44813 9L 6.80813 9L 6.80813 37L 8.92813 37L 8.92813 12.12L 19.2881 29.32L 19.6481 29.32L 30.0081 12.12L 30.0081 37L 32.1281 37L 32.1281 9ZM 56.2737 17L 56.2737 21.52C 54.5938 18.52 51.5138 16.56 47.6737 16.56C 41.9937 16.56 37.3137 21.08 37.3137 27C 37.3137 32.92 41.9937 37.44 47.6737 37.44C 51.5138 37.44 54.5938 35.48 56.2737 32.48L 56.2737 37L 58.3137 37L 58.3137 17L 56.2737 17ZM 47.8338 35.52C 43.0738 35.52 39.3537 31.76 39.3537 27C 39.3537 22.24 43.0738 18.48 47.8338 18.48C 52.5938 18.48 56.2737 22.24 56.2737 27C 56.2737 31.76 52.5938 35.52 47.8338 35.52ZM 73.615 37.44C 77.535 37.44 80.895 35.44 82.495 32.36L 80.815 31.36C 79.495 33.84 76.855 35.52 73.615 35.52C 68.775 35.52 65.135 31.76 65.135 27C 65.135 22.24 68.775 18.48 73.615 18.48C 76.815 18.48 79.535 20.12 80.695 22.64L 82.335 21.68C 80.895 18.56 77.535 16.56 73.615 16.56C 67.575 16.56 63.095 21.08 63.095 27C 63.095 32.92 67.575 37.44 73.615 37.44ZM 96.0369 16.56C 92.9569 16.56 90.3969 17.84 88.8769 20.8L 88.8769 9L 86.8769 9L 86.8769 37L 88.8769 37L 88.8769 26.44C 88.8769 21.04 91.9569 18.48 95.8769 18.48C 99.6369 18.48 101.757 20.88 101.757 24.56L 101.757 37L 103.797 37L 103.797 24.56C 103.797 19.72 100.797 16.56 96.0369 16.56ZM 110.455 12.16C 111.335 12.16 112.055 11.44 112.055 10.56C 112.055 9.72 111.335 9 110.455 9C 109.575 9 108.855 9.72 108.855 10.56C 108.855 11.44 109.575 12.16 110.455 12.16ZM 109.455 37L 111.455 37L 111.455 17L 109.455 17L 109.455 37ZM 126.779 16.56C 123.699 16.56 121.139 17.84 119.619 20.8L 119.619 17L 117.619 17L 117.619 37L 119.619 37L 119.619 26.44C 119.619 21.04 122.699 18.48 126.619 18.48C 130.379 18.48 132.499 20.88 132.499 24.56L 132.499 37L 134.539 37L 134.539 24.56C 134.539 19.72 131.539 16.56 126.779 16.56ZM 149.197 16.56C 143.077 16.56 138.837 21.12 138.837 27C 138.837 33.04 143.197 37.44 149.357 37.44C 153.317 37.44 156.437 35.64 158.077 32.92L 156.317 31.88C 155.157 34 152.677 35.52 149.397 35.52C 144.837 35.52 141.397 32.56 140.917 28.04L 159.037 28.04C 159.037 27.72 159.077 27.4 159.077 27.08C 159.077 21.6 155.277 16.56 149.197 16.56ZM 149.197 18.48C 153.117 18.48 156.557 21.2 156.997 26.08L 140.917 26.08C 141.317 21.64 144.637 18.48 149.197 18.48ZM 7.58047 81L 7.58047 55L 5.46047 55L 5.46047 83L 20.7805 83L 20.7805 81L 7.58047 81ZM 32.7714 62.56C 26.6514 62.56 22.4114 67.12 22.4114 73C 22.4114 79.04 26.7714 83.44 32.9314 83.44C 36.8914 83.44 40.0114 81.64 41.6514 78.92L 39.8914 77.88C 38.7314 80 36.2514 81.52 32.9714 81.52C 28.4114 81.52 24.9714 78.56 24.4914 74.04L 42.6114 74.04C 42.6114 73.72 42.6514 73.4 42.6514 73.08C 42.6514 67.6 38.8514 62.56 32.7714 62.56ZM 32.7714 64.48C 36.6914 64.48 40.1314 67.2 40.5714 72.08L 24.4914 72.08C 24.8914 67.64 28.2114 64.48 32.7714 64.48ZM 64.9261 63L 64.9261 67.52C 63.2461 64.52 60.1661 62.56 56.3261 62.56C 50.6461 62.56 45.9661 67.08 45.9661 73C 45.9661 78.92 50.6461 83.44 56.3261 83.44C 60.1661 83.44 63.2461 81.48 64.9261 78.48L 64.9261 83L 66.9661 83L 66.9661 63L 64.9261 63ZM 56.4861 81.52C 51.7261 81.52 48.0061 77.76 48.0061 73C 48.0061 68.24 51.7261 64.48 56.4861 64.48C 61.2461 64.48 64.9261 68.24 64.9261 73C 64.9261 77.76 61.2461 81.52 56.4861 81.52ZM 75.1073 66.92L 75.1073 63L 73.1073 63L 73.1073 83L 75.1073 83L 75.1073 71.88C 75.1073 66.76 78.3473 64.64 81.7873 64.64L 81.7873 62.72C 79.0673 62.72 76.4673 63.76 75.1073 66.92ZM 95.0017 62.56C 91.9217 62.56 89.3617 63.84 87.8417 66.8L 87.8417 63L 85.8417 63L 85.8417 83L 87.8417 83L 87.8417 72.44C 87.8417 67.04 90.9217 64.48 94.8417 64.48C 98.6017 64.48 100.722 66.88 100.722 70.56L 100.722 83L 102.762 83L 102.762 70.56C 102.762 65.72 99.7617 62.56 95.0017 62.56ZM 109.42 58.16C 110.3 58.16 111.02 57.44 111.02 56.56C 111.02 55.72 110.3 55 109.42 55C 108.54 55 107.82 55.72 107.82 56.56C 107.82 57.44 108.54 58.16 109.42 58.16ZM 108.42 83L 110.42 83L 110.42 63L 108.42 63L 108.42 83ZM 125.744 62.56C 122.664 62.56 120.104 63.84 118.584 66.8L 118.584 63L 116.584 63L 116.584 83L 118.584 83L 118.584 72.44C 118.584 67.04 121.664 64.48 125.584 64.48C 129.344 64.48 131.464 66.88 131.464 70.56L 131.464 83L 133.504 83L 133.504 70.56C 133.504 65.72 130.504 62.56 125.744 62.56ZM 156.922 63L 156.922 67.64C 155.282 64.56 152.202 62.56 148.322 62.56C 142.602 62.56 137.962 67.08 137.962 73C 137.962 78.92 142.602 83.44 148.322 83.44C 152.202 83.44 155.282 81.44 156.922 78.36L 156.922 82.04C 156.922 86.6 153.962 89.52 148.962 89.52C 144.562 89.52 142.322 87.76 141.282 85.64L 139.522 86.64C 140.962 89.56 144.282 91.44 148.962 91.44C 154.482 91.44 158.922 88.04 158.922 82.04L 158.922 63L 156.922 63ZM 148.442 81.52C 143.682 81.52 139.962 77.76 139.962 73C 139.962 68.24 143.682 64.48 148.442 64.48C 153.202 64.48 156.922 68.24 156.922 73C 156.922 77.76 153.202 81.52 148.442 81.52Z"/>
<path id="path5_fill" d="M 15.5324 46.55C 22.4824 46.55 27.0324 42.75 27.0324 36.95C 27.0324 30.9 21.6324 28.95 15.4324 26.9C 10.4324 25.25 6.88242 23.95 6.88242 19.75C 6.88242 15.85 9.93242 13 14.7824 13C 19.7824 13 22.4824 15.9 23.7824 19.05L 26.0324 17.8C 24.3324 13.75 20.5324 10.45 14.7824 10.45C 8.83242 10.45 4.18242 14.1 4.18242 19.85C 4.18242 25.95 9.43242 27.6 15.2824 29.5C 20.6324 31.2 24.3324 32.8 24.3324 37C 24.3324 41 21.3824 44 15.5324 44C 9.78242 44 6.23242 41.15 5.03242 36.95L 2.73242 38.3C 4.33242 43.25 8.98242 46.55 15.5324 46.55ZM 46.2934 20.45C 41.4434 20.45 37.5934 22.95 35.5434 26.8L 35.5434 21L 33.0434 21L 33.0434 56L 35.5434 56L 35.5434 40.2C 37.5934 44.05 41.4434 46.55 46.2934 46.55C 53.4434 46.55 59.2434 40.9 59.2434 33.5C 59.2434 26.1 53.4434 20.45 46.2934 20.45ZM 46.1434 44.15C 40.1934 44.15 35.5434 39.45 35.5434 33.5C 35.5434 27.55 40.1934 22.85 46.1434 22.85C 52.0934 22.85 56.7434 27.55 56.7434 33.5C 56.7434 39.45 52.0934 44.15 46.1434 44.15ZM 87.2699 21L 87.2699 26.65C 85.1699 22.9 81.3199 20.45 76.5199 20.45C 69.4199 20.45 63.5699 26.1 63.5699 33.5C 63.5699 40.9 69.4199 46.55 76.5199 46.55C 81.3199 46.55 85.1699 44.1 87.2699 40.35L 87.2699 46L 89.8199 46L 89.8199 21L 87.2699 21ZM 76.7199 44.15C 70.7699 44.15 66.1199 39.45 66.1199 33.5C 66.1199 27.55 70.7699 22.85 76.7199 22.85C 82.6699 22.85 87.2699 27.55 87.2699 33.5C 87.2699 39.45 82.6699 44.15 76.7199 44.15ZM 124.196 20.45C 120.846 20.45 117.646 22.05 115.846 25.55C 114.546 22.25 111.696 20.45 108.046 20.45C 104.846 20.45 101.846 21.85 99.9965 25.3L 99.9965 21L 97.4965 21L 97.4965 46L 99.9965 46L 99.9965 32.05C 99.9965 25.65 103.646 22.85 107.746 22.85C 111.596 22.85 114.146 25.4 114.146 30.15L 114.146 46L 116.646 46L 116.646 32.05C 116.646 25.65 119.946 22.85 124.146 22.85C 128.046 22.85 130.796 25.4 130.796 30.15L 130.796 46L 133.296 46L 133.296 30.15C 133.296 23.9 129.496 20.45 124.196 20.45ZM 17.4678 100.5L 17.4678 68L 14.8178 68L 14.8178 103L 33.9678 103L 33.9678 100.5L 17.4678 100.5ZM 48.9564 77.45C 41.3064 77.45 36.0064 83.15 36.0064 90.5C 36.0064 98.05 41.4564 103.55 49.1564 103.55C 54.1064 103.55 58.0064 101.3 60.0564 97.9L 57.8564 96.6C 56.4064 99.25 53.3064 101.15 49.2064 101.15C 43.5064 101.15 39.2064 97.45 38.6064 91.8L 61.2564 91.8C 61.2564 91.4 61.3064 91 61.3064 90.6C 61.3064 83.75 56.5564 77.45 48.9564 77.45ZM 48.9564 79.85C 53.8564 79.85 58.1564 83.25 58.7064 89.35L 38.6064 89.35C 39.1064 83.8 43.2564 79.85 48.9564 79.85ZM 84.5232 78L 75.0732 100.4L 65.6732 78L 62.9732 78L 73.5732 103L 76.6232 103L 87.1732 78L 84.5232 78ZM 101.984 77.45C 94.3338 77.45 89.0338 83.15 89.0338 90.5C 89.0338 98.05 94.4838 103.55 102.184 103.55C 107.134 103.55 111.034 101.3 113.084 97.9L 110.884 96.6C 109.434 99.25 106.334 101.15 102.234 101.15C 96.5338 101.15 92.2338 97.45 91.6338 91.8L 114.284 91.8C 114.284 91.4 114.334 91 114.334 90.6C 114.334 83.75 109.584 77.45 101.984 77.45ZM 101.984 79.85C 106.884 79.85 111.184 83.25 111.734 89.35L 91.6338 89.35C 92.1338 83.8 96.2838 79.85 101.984 79.85ZM 120.177 103L 122.677 103L 122.677 66.5L 120.177 66.5L 120.177 103Z"/>
</defs>
</svg>
