<svg width="618" height="608" viewBox="0 0 618 608" version="1.1" xmlns="http://www.w3.org/2000/svg" xmlns:xlink="http://www.w3.org/1999/xlink" xmlns:figma="http://www.figma.com/figma/ns">
<title>weightToLoss</title>
<g id="Canvas" transform="translate(-4953 -1323)" figma:type="canvas">
<g id="LossToWeights" figma:type="frame">
<g id="Line" figma:type="line">
<use xlink:href="#path0_stroke" transform="matrix(6.12323e-17 1 -1 6.12323e-17 5050 1324)" fill="#666666"/>
</g>
<g id="Line" figma:type="line">
<use xlink:href="#path0_stroke" transform="translate(5050 1824)" fill="#666666"/>
</g>
<g id="Loss" figma:type="text">
<use xlink:href="#path1_fill" transform="matrix(6.12323e-17 -1 1 6.12323e-17 4942 1623)" fill="#666666"/>
</g>
<g id="Weights" figma:type="text">
<use xlink:href="#path2_fill" transform="matrix(1 2.67189e-24 -2.67189e-24 1 5206 1874)" fill="#666666"/>
</g>
<g id="We Are Here" figma:type="text">
<use xlink:href="#path3_fill" transform="matrix(1 2.67189e-24 -2.67189e-24 1 5159 1493)" fill="#666666"/>
</g>
<g id="Goal" figma:type="text">
<use xlink:href="#path4_fill" transform="matrix(1 2.67189e-24 -2.67189e-24 1 5527 1716)" fill="#666666"/>
</g>
<g id="Vector" figma:type="vector">
<use xlink:href="#path5_stroke" transform="translate(5054 1324)" fill="#309FDD"/>
</g>
<g id="Ellipse 2" figma:type="ellipse">
<use xlink:href="#path6_fill" transform="translate(5073 1498)" fill="#DD9336"/>
</g>
<g id="Ellipse 2" figma:type="ellipse">
<use xlink:href="#path6_fill" transform="translate(5543 1814)" fill="#DD9336"/>
</g>
<g id="Arrow 2" figma:type="vector">
<use xlink:href="#path7_stroke" transform="matrix(-1 1.22465e-16 -1.22465e-16 -1 5150 1505)" fill="#666666"/>
</g>
<g id="Arrow 2" figma:type="vector">
<use xlink:href="#path7_stroke" transform="matrix(6.12323e-17 1 -1 6.12323e-17 5550 1750)" fill="#666666"/>
</g>
</g>
</g>
<defs>
<path id="path0_stroke" d="M 0 0L 500 0L 500 -5L 0 -5L 0 0Z"/>
<path id="path1_fill" d="M 7 43.5L 7 11L 4.35 11L 4.35 46L 23.5 46L 23.5 43.5L 7 43.5ZM 38.6887 46.55C 45.9387 46.55 51.7887 40.9 51.7887 33.5C 51.7887 26.1 45.9387 20.45 38.6887 20.45C 31.3887 20.45 25.5387 26.1 25.5387 33.5C 25.5387 40.9 31.3887 46.55 38.6887 46.55ZM 38.6887 44.15C 32.7387 44.15 28.0887 39.45 28.0887 33.5C 28.0887 27.55 32.7387 22.85 38.6887 22.85C 44.6387 22.85 49.2387 27.55 49.2387 33.5C 49.2387 39.45 44.6387 44.15 38.6887 44.15ZM 59.0168 27.55C 59.0168 24.55 61.7668 22.85 65.0168 22.85C 67.7668 22.85 70.3668 24.05 71.4168 26.65L 73.5168 25.45C 72.1668 22.4 69.0668 20.45 65.0168 20.45C 59.9168 20.45 56.5168 23.6 56.5168 27.55C 56.5168 36.55 71.6668 32.65 71.6668 39.45C 71.6668 42.6 68.7168 44.15 65.2168 44.15C 61.4668 44.15 58.7668 42.45 57.8668 39.75L 55.7168 41C 56.9168 44.2 60.2168 46.55 65.2168 46.55C 70.5668 46.55 74.1668 43.55 74.1668 39.45C 74.1668 30.3 59.0168 34.25 59.0168 27.55ZM 80.4035 27.55C 80.4035 24.55 83.1535 22.85 86.4035 22.85C 89.1535 22.85 91.7535 24.05 92.8035 26.65L 94.9035 25.45C 93.5535 22.4 90.4535 20.45 86.4035 20.45C 81.3035 20.45 77.9035 23.6 77.9035 27.55C 77.9035 36.55 93.0535 32.65 93.0535 39.45C 93.0535 42.6 90.1035 44.15 86.6035 44.15C 82.8535 44.15 80.1535 42.45 79.2535 39.75L 77.1035 41C 78.3035 44.2 81.6035 46.55 86.6035 46.55C 91.9535 46.55 95.5535 43.55 95.5535 39.45C 95.5535 30.3 80.4035 34.25 80.4035 27.55Z"/>
<path id="path2_fill" d="M 11.8 46L 15 46L 24.85 14.45L 34.65 46L 37.85 46L 48 11L 45.2 11L 36.2 42.45L 26.4 11L 23.25 11L 13.5 42.45L 4.45 11L 1.65 11L 11.8 46ZM 61.7797 20.45C 54.1297 20.45 48.8297 26.15 48.8297 33.5C 48.8297 41.05 54.2797 46.55 61.9797 46.55C 66.9297 46.55 70.8297 44.3 72.8797 40.9L 70.6797 39.6C 69.2297 42.25 66.1297 44.15 62.0297 44.15C 56.3297 44.15 52.0297 40.45 51.4297 34.8L 74.0797 34.8C 74.0797 34.4 74.1297 34 74.1297 33.6C 74.1297 26.75 69.3797 20.45 61.7797 20.45ZM 61.7797 22.85C 66.6797 22.85 70.9797 26.25 71.5297 32.35L 51.4297 32.35C 51.9297 26.8 56.0797 22.85 61.7797 22.85ZM 81.223 14.95C 82.323 14.95 83.223 14.05 83.223 12.95C 83.223 11.9 82.323 11 81.223 11C 80.123 11 79.223 11.9 79.223 12.95C 79.223 14.05 80.123 14.95 81.223 14.95ZM 79.973 46L 82.473 46L 82.473 21L 79.973 21L 79.973 46ZM 112.378 21L 112.378 26.8C 110.328 22.95 106.478 20.45 101.628 20.45C 94.4781 20.45 88.6781 26.1 88.6781 33.5C 88.6781 40.9 94.4781 46.55 101.628 46.55C 106.478 46.55 110.328 44.05 112.378 40.2L 112.378 44.8C 112.378 50.5 108.678 54.15 102.428 54.15C 96.9281 54.15 94.1281 51.95 92.8281 49.3L 90.6281 50.55C 92.4281 54.2 96.5781 56.55 102.428 56.55C 109.328 56.55 114.878 52.3 114.878 44.8L 114.878 21L 112.378 21ZM 101.778 44.15C 95.8281 44.15 91.1781 39.45 91.1781 33.5C 91.1781 27.55 95.8281 22.85 101.778 22.85C 107.728 22.85 112.378 27.55 112.378 33.5C 112.378 39.45 107.728 44.15 101.778 44.15ZM 134.05 20.45C 130.2 20.45 127 22.05 125.1 25.75L 125.1 11L 122.6 11L 122.6 46L 125.1 46L 125.1 32.8C 125.1 26.05 128.95 22.85 133.85 22.85C 138.55 22.85 141.2 25.85 141.2 30.45L 141.2 46L 143.75 46L 143.75 30.45C 143.75 24.4 140 20.45 134.05 20.45ZM 163.623 23.45L 163.623 21L 156.173 21L 156.173 14L 153.623 14.75L 153.623 21L 148.123 21L 148.123 23.45L 153.623 23.45L 153.623 39.7C 153.623 45.4 157.073 47 163.623 46L 163.623 43.75C 158.523 44.2 156.173 44.1 156.173 39.7L 156.173 23.45L 163.623 23.45ZM 169.808 27.55C 169.808 24.55 172.558 22.85 175.808 22.85C 178.558 22.85 181.158 24.05 182.208 26.65L 184.308 25.45C 182.958 22.4 179.858 20.45 175.808 20.45C 170.708 20.45 167.308 23.6 167.308 27.55C 167.308 36.55 182.458 32.65 182.458 39.45C 182.458 42.6 179.508 44.15 176.008 44.15C 172.258 44.15 169.558 42.45 168.658 39.75L 166.508 41C 167.708 44.2 171.008 46.55 176.008 46.55C 181.358 46.55 184.958 43.55 184.958 39.45C 184.958 30.3 169.808 34.25 169.808 27.55Z"/>
<path id="path3_fill" d="M 4.72 18L 6 18L 9.94 5.38L 13.86 18L 15.14 18L 19.2 4L 18.08 4L 14.48 16.58L 10.56 4L 9.3 4L 5.4 16.58L 1.78 4L 0.66 4L 4.72 18ZM 24.7119 7.78C 21.6519 7.78 19.5319 10.06 19.5319 13C 19.5319 16.02 21.7119 18.22 24.7919 18.22C 26.7719 18.22 28.3319 17.32 29.1519 15.96L 28.2719 15.44C 27.6919 16.5 26.4519 17.26 24.8119 17.26C 22.5319 17.26 20.8119 15.78 20.5719 13.52L 29.6319 13.52C 29.6319 13.36 29.6519 13.2 29.6519 13.04C 29.6519 10.3 27.7519 7.78 24.7119 7.78ZM 24.7119 8.74C 26.6719 8.74 28.3919 10.1 28.6119 12.54L 20.5719 12.54C 20.7719 10.32 22.4319 8.74 24.7119 8.74ZM 46.9412 18L 48.0613 18L 42.6412 4L 41.5213 4L 36.0812 18L 37.2013 18L 38.5613 14.44L 45.5812 14.44L 46.9412 18ZM 38.9612 13.44L 42.0812 5.3L 45.2013 13.44L 38.9612 13.44ZM 50.8994 9.96L 50.8994 8L 49.8994 8L 49.8994 18L 50.8994 18L 50.8994 12.44C 50.8994 9.88 52.5194 8.82 54.2394 8.82L 54.2394 7.86C 52.8794 7.86 51.5794 8.38 50.8994 9.96ZM 60.1611 7.78C 57.1011 7.78 54.9811 10.06 54.9811 13C 54.9811 16.02 57.1611 18.22 60.2411 18.22C 62.2211 18.22 63.7811 17.32 64.6011 15.96L 63.7211 15.44C 63.1411 16.5 61.9011 17.26 60.2611 17.26C 57.9811 17.26 56.2611 15.78 56.0211 13.52L 65.0811 13.52C 65.0811 13.36 65.1011 13.2 65.1011 13.04C 65.1011 10.3 63.2011 7.78 60.1611 7.78ZM 60.1611 8.74C 62.1211 8.74 63.8411 10.1 64.0611 12.54L 56.0211 12.54C 56.2211 10.32 57.8811 8.74 60.1611 8.74ZM 82.1705 4L 82.1705 10.3L 74.0305 10.3L 74.0305 4L 72.9705 4L 72.9705 18L 74.0305 18L 74.0305 11.3L 82.1705 11.3L 82.1705 18L 83.2305 18L 83.2305 4L 82.1705 4ZM 91.0009 7.78C 87.9409 7.78 85.8209 10.06 85.8209 13C 85.8209 16.02 88.0009 18.22 91.0809 18.22C 93.0609 18.22 94.6209 17.32 95.4409 15.96L 94.5609 15.44C 93.9809 16.5 92.7409 17.26 91.1009 17.26C 88.8209 17.26 87.1009 15.78 86.8609 13.52L 95.9209 13.52C 95.9209 13.36 95.9409 13.2 95.9409 13.04C 95.9409 10.3 94.0409 7.78 91.0009 7.78ZM 91.0009 8.74C 92.9609 8.74 94.6809 10.1 94.9009 12.54L 86.8609 12.54C 87.0609 10.32 88.7209 8.74 91.0009 8.74ZM 99.2783 9.96L 99.2783 8L 98.2783 8L 98.2783 18L 99.2783 18L 99.2783 12.44C 99.2783 9.88 100.898 8.82 102.618 8.82L 102.618 7.86C 101.258 7.86 99.9583 8.38 99.2783 9.96ZM 108.54 7.78C 105.48 7.78 103.36 10.06 103.36 13C 103.36 16.02 105.54 18.22 108.62 18.22C 110.6 18.22 112.16 17.32 112.98 15.96L 112.1 15.44C 111.52 16.5 110.28 17.26 108.64 17.26C 106.36 17.26 104.64 15.78 104.4 13.52L 113.46 13.52C 113.46 13.36 113.48 13.2 113.48 13.04C 113.48 10.3 111.58 7.78 108.54 7.78ZM 108.54 8.74C 110.5 8.74 112.22 10.1 112.44 12.54L 104.4 12.54C 104.6 10.32 106.26 8.74 108.54 8.74Z"/>
<path id="path4_fill" d="M 15.06 11.48L 8.04 11.48L 8.04 12.48L 13.98 12.48C 13.76 15.1 11.7 17.2 8.3 17.2C 4.54 17.2 2 14.44 2 11C 2 7.56 4.54 4.8 8.22 4.8C 10.42 4.8 12.38 5.96 13.3 7.72L 14.24 7.16C 13.08 5.14 10.82 3.78 8.22 3.78C 3.96 3.78 0.94 7 0.94 11C 0.94 15 3.96 18.22 8.3 18.22C 12.48 18.22 15.06 15.4 15.06 12.02L 15.06 11.48ZM 22.0966 18.22C 24.9966 18.22 27.3366 15.96 27.3366 13C 27.3366 10.04 24.9966 7.78 22.0966 7.78C 19.1766 7.78 16.8366 10.04 16.8366 13C 16.8366 15.96 19.1766 18.22 22.0966 18.22ZM 22.0966 17.26C 19.7166 17.26 17.8566 15.38 17.8566 13C 17.8566 10.62 19.7166 8.74 22.0966 8.74C 24.4766 8.74 26.3166 10.62 26.3166 13C 26.3166 15.38 24.4766 17.26 22.0966 17.26ZM 38.5431 8L 38.5431 10.26C 37.7031 8.76 36.1631 7.78 34.2431 7.78C 31.4031 7.78 29.0631 10.04 29.0631 13C 29.0631 15.96 31.4031 18.22 34.2431 18.22C 36.1631 18.22 37.7031 17.24 38.5431 15.74L 38.5431 18L 39.5631 18L 39.5631 8L 38.5431 8ZM 34.3231 17.26C 31.9431 17.26 30.0831 15.38 30.0831 13C 30.0831 10.62 31.9431 8.74 34.3231 8.74C 36.7031 8.74 38.5431 10.62 38.5431 13C 38.5431 15.38 36.7031 17.26 34.3231 17.26ZM 42.6337 18L 43.6337 18L 43.6337 3.4L 42.6337 3.4L 42.6337 18Z"/>
<path id="path5_stroke" d="M -1.49657 -0.00455C -2.25233 249.144 122.143 373.874 246.765 436.217C 309.01 467.344 371.366 482.937 418.042 490.714C 441.399 494.604 460.897 496.553 474.519 497.525C 481.339 498.012 486.711 498.256 490.363 498.378C 492.194 498.439 493.603 498.469 494.549 498.485C 495.023 498.492 495.386 498.496 495.628 498.498C 495.749 498.499 495.842 498.5 495.903 498.5C 495.935 498.5 495.959 498.5 495.974 498.5C 495.982 498.5 495.989 498.5 495.993 498.5C 495.997 498.5 496 498.5 496 497C 496 495.5 495.999 495.5 495.996 495.5C 495.992 495.5 495.987 495.5 495.98 495.5C 495.966 495.5 495.944 495.5 495.915 495.5C 495.856 495.5 495.769 495.499 495.651 495.498C 495.414 495.496 495.064 495.493 494.597 495.485C 493.66 495.47 492.276 495.44 490.463 495.379C 486.829 495.258 481.514 495.017 474.733 494.533C 461.153 493.564 441.795 491.63 418.535 487.755C 371.976 480 310.051 464.531 248.107 433.533C 124.355 371.626 0.751593 247.856 1.50341 0.00455L -1.49657 -0.00455Z"/>
<path id="path6_fill" d="M 14 7C 14 10.866 10.866 14 7 14C 3.13401 14 0 10.866 0 7C 0 3.13401 3.13401 0 7 0C 10.866 0 14 3.13401 14 7Z"/>
<path id="path7_stroke" d="M 54.3536 0.353553C 54.5488 0.158291 54.5488 -0.158291 54.3536 -0.353553L 51.1716 -3.53553C 50.9763 -3.7308 50.6597 -3.7308 50.4645 -3.53553C 50.2692 -3.34027 50.2692 -3.02369 50.4645 -2.82843L 53.2929 0L 50.4645 2.82843C 50.2692 3.02369 50.2692 3.34027 50.4645 3.53553C 50.6597 3.7308 50.9763 3.7308 51.1716 3.53553L 54.3536 0.353553ZM 0 0.5L 54 0.5L 54 -0.5L 0 -0.5L 0 0.5Z"/>
</defs>
</svg>
