<svg width="356" height="125" viewBox="0 0 356 125" fill="none" xmlns="http://www.w3.org/2000/svg">
<path d="M74.9001 25.0909V100H84.2637V68.544L114.696 100H128.741L90.2257 60.2045L128.741 25.0909H114.696L84.2637 52.8526V25.0909H74.9001ZM170.841 42.0625L153.211 79.517H148.968V71.3239H192.494V79.517H188.471L170.841 42.0625ZM133.386 100L170.841 20.4091L208.295 100H198.127L188.471 79.517H153.211L143.555 100H133.386ZM213.005 25.0909V100H242.266C242.266 100 266.845 100 266.845 77.7614C266.845 67.8857 262.017 62.3991 256.641 59.3633C259.75 56.4006 262.164 51.9016 262.164 44.9886C262.164 25.0909 242.266 25.0909 242.266 25.0909H213.005ZM222.368 90.6364V64.8864H242.266C242.266 64.8864 257.482 64.8864 257.482 77.7614C257.482 90.6364 242.266 90.6364 242.266 90.6364H222.368ZM222.368 55.5227V34.4545H242.266C242.266 34.4545 252.8 34.4545 252.8 44.9886C252.8 55.5227 242.266 55.5227 242.266 55.5227H222.368ZM276.173 25.0909V100H285.536V25.0909H276.173ZM294.882 25.0909V100H304.245V69.5682H324.143C344.041 69.5682 337.018 92.9773 344.041 100H353.404C346.345 92.9407 349.929 73.994 339.651 65.0327C344.553 61.8505 348.722 56.4737 348.722 47.3295C348.722 25.0909 324.143 25.0909 324.143 25.0909H294.882ZM304.245 60.2045V34.4545H324.143C324.143 34.4545 339.359 34.4545 339.359 47.3295C339.359 60.2045 324.143 60.2045 324.143 60.2045H304.245Z" fill="white"/>
<path d="M60 100L30 62.5L2.6625 97.3375C4.36727 99.0423 6.67943 100 9.09034 100H60Z" fill="url(#paint0_linear_375_9)"/>
<path fill-rule="evenodd" clip-rule="evenodd" d="M60 25H7.5C3.35786 25 0 28.3579 0 32.5V90.9097C0 93.3206 0.95773 95.6327 2.6625 97.3375L30 62.5L60 25Z" fill="white"/>
<defs>
<linearGradient id="paint0_linear_375_9" x1="60" y1="100" x2="30" y2="62.5" gradientUnits="userSpaceOnUse">
<stop stop-color="white"/>
<stop offset="1" stop-color="#DBDBDB"/>
</linearGradient>
</defs>
</svg>
