<svg width="372" height="125" viewBox="0 0 372 125" fill="none" xmlns="http://www.w3.org/2000/svg">
<path d="M74.7023 25.0909V100H84.066V65.8008L119.18 100H133.225L92.3689 60.2045L133.225 25.0909H119.18L84.066 55.2667V25.0909H74.7023ZM177.711 44.4034L160.776 78.9318H155.839V70.7386H199.365V78.9318H194.646L177.711 44.4034ZM140.257 100L177.711 22.75L215.166 100H204.998L194.646 78.9318H160.776L150.425 100H140.257ZM222.161 25.0909V100H256.104C256.104 100 280.684 100.585 280.684 78.3466C280.684 68.1417 275.49 62.7283 269.894 59.8754C273.296 56.9492 276.002 52.3406 276.002 44.9886C276.002 25.0909 256.104 25.0909 256.104 25.0909H222.161ZM231.525 91.8068V64.8864H256.104C256.104 64.8864 271.32 65.4716 271.32 78.3466C271.32 91.2216 256.104 91.8068 256.104 91.8068H231.525ZM231.525 56.6932V33.2841H256.104C256.104 33.2841 266.639 34.4545 266.639 44.9886C266.639 55.5227 256.104 56.6932 256.104 56.6932H231.525ZM287.743 25.0909V100H297.107V25.0909H287.743ZM306.452 25.0909V100H315.816V69.5682H340.396C360.293 69.5682 353.271 92.9773 360.293 100H369.657C362.451 92.7944 366.328 73.8477 355.209 65.4716C360.403 62.3626 364.975 56.9126 364.975 47.3295C364.975 25.0909 340.396 25.0909 340.396 25.0909H306.452ZM315.816 61.375V33.2841H340.396C340.396 33.2841 355.611 34.4545 355.611 47.3295C355.611 60.2045 340.396 61.375 340.396 61.375H315.816Z" fill="white"/>
<path d="M60 100L30 62.5L2.6625 97.3375C4.36727 99.0423 6.67943 100 9.09034 100H60Z" fill="url(#paint0_linear_375_9)"/>
<path fill-rule="evenodd" clip-rule="evenodd" d="M60 25H7.5C3.35786 25 0 28.3579 0 32.5V90.9097C0 93.3206 0.95773 95.6327 2.6625 97.3375L30 62.5L60 25Z" fill="white"/>
<defs>
<linearGradient id="paint0_linear_375_9" x1="60" y1="100" x2="30" y2="62.5" gradientUnits="userSpaceOnUse">
<stop stop-color="white"/>
<stop offset="1" stop-color="#DBDBDB"/>
</linearGradient>
</defs>
</svg>
