<svg width="255" height="201" viewBox="0 0 255 201" version="1.1" xmlns="http://www.w3.org/2000/svg" xmlns:xlink="http://www.w3.org/1999/xlink" xmlns:figma="http://www.figma.com/figma/ns"><title>Email</title><desc>Created using Figma</desc><g id="Canvas" transform="translate(-12344 -2425)" figma:type="canvas"><g id="Email" style="mix-blend-mode:normal;" figma:type="frame"><g id="Rectangle 3" style="mix-blend-mode:normal;" figma:type="rounded-rectangle"><mask id="mask0_outline_ins"><use xlink:href="#path0_fill" fill="white" transform="translate(12344 2425)"/></mask><g mask="url(#mask0_outline_ins)"><use xlink:href="#path1_stroke_2x" transform="translate(12344 2425)" fill="#111111" style="mix-blend-mode:normal;"/></g></g><g id="Vector 2" style="mix-blend-mode:normal;" figma:type="vector"><use xlink:href="#path2_stroke" transform="translate(12353.8 2437.56)" fill="#111111" style="mix-blend-mode:normal;"/></g></g></g><defs><path id="path0_fill" d="M 0 10C 0 4.47715 4.47715 0 10 0L 245 0C 250.523 0 255 4.47715 255 10L 255 191C 255 196.523 250.523 201 245 201L 10 201C 4.47715 201 0 196.523 0 191L 0 10Z"/><path id="path1_stroke_2x" d="M 10 25L 245 25L 245 -25L 10 -25L 10 25ZM 230 10L 230 191L 280 191L 280 10L 230 10ZM 245 176L 10 176L 10 226L 245 226L 245 176ZM 25 191L 25 10L -25 10L -25 191L 25 191ZM 10 -25C -9.32997 -25 -25 -9.32997 -25 10L 25 10C 25 18.2843 18.2843 25 10 25L 10 -25ZM 245 25C 236.716 25 230 18.2843 230 10L 280 10C 280 -9.32997 264.33 -25 245 -25L 245 25ZM 230 191C 230 182.716 236.716 176 245 176L 245 226C 264.33 226 280 210.33 280 191L 230 191ZM 10 176C 18.2843 176 25 182.716 25 191L -25 191C -25 210.33 -9.32997 226 10 226L 10 176Z"/><path id="path2_stroke" d="M 116.442 93.2181L 108.63 102.976L 116.442 93.2181ZM 118.942 93.2181L 126.754 102.976L 118.942 93.2181ZM -7.81197 9.75823L 108.63 102.976L 124.254 83.4599L 7.81197 -9.75823L -7.81197 9.75823ZM 126.754 102.976L 243.197 9.75823L 227.573 -9.75823L 111.13 83.4599L 126.754 102.976ZM 108.63 102.976C 113.928 107.217 121.457 107.217 126.754 102.976L 111.13 83.4599C 114.966 80.3891 120.419 80.3891 124.254 83.4599L 108.63 102.976Z"/></defs></svg>
