<svg width="255" height="249" viewBox="0 0 255 249" version="1.1" xmlns="http://www.w3.org/2000/svg" xmlns:xlink="http://www.w3.org/1999/xlink" xmlns:figma="http://www.figma.com/figma/ns"><title>Github</title><desc>Created using Figma</desc><g id="Canvas" transform="translate(-11821 -2793)" figma:type="canvas"><g id="Github" style="mix-blend-mode:normal;" figma:type="frame"><g id="Vector" style="mix-blend-mode:normal;" figma:type="vector"><use xlink:href="#path0_fill" transform="translate(11821 2793)" fill="#111111" style="mix-blend-mode:normal;"/></g></g></g><defs><path id="path0_fill" d="M 127.5 0C 57.0886 0 0 57.0886 0 127.5C 0 183.842 36.5288 231.623 87.1971 248.479C 93.5706 249.646 95.8974 245.708 95.8974 242.346C 95.8974 239.311 95.7806 229.257 95.7184 218.611C 60.2637 226.315 52.7696 203.577 52.7696 203.577C 46.9643 188.853 38.6141 184.931 38.6141 184.931C 27.0268 177.025 39.4931 177.18 39.4931 177.18C 52.2944 178.067 59.034 190.316 59.034 190.316C 70.4114 209.802 88.8857 204.168 96.1385 200.9C 97.2974 192.682 100.597 187.048 104.232 183.873C 75.9287 180.651 46.155 169.709 46.155 120.854C 46.155 106.924 51.1278 95.5627 59.2676 86.6367C 57.9679 83.3994 53.5789 70.4268 60.5281 52.8786C 60.5281 52.8786 71.2207 49.4546 95.5936 65.9524C 105.757 63.112 116.66 61.7112 127.5 61.6644C 138.332 61.7112 149.242 63.1274 159.422 65.9678C 183.748 49.4546 194.456 52.8941 194.456 52.8941C 201.429 70.4579 197.04 83.4149 195.732 86.6367C 203.903 95.5627 208.837 106.924 208.837 120.854C 208.837 169.834 179.017 180.62 150.613 183.779C 155.204 187.733 159.266 195.483 159.266 207.374C 159.266 224.417 159.095 238.16 159.095 242.362C 159.095 245.755 161.414 249.724 167.873 248.479C 218.503 231.592 255 183.81 255 127.5C 255 57.0886 197.911 0 127.5 0Z"/></defs></svg>
