<svg width="1000" height="1000" viewBox="0 0 1000 1000" version="1.1" xmlns="http://www.w3.org/2000/svg" xmlns:xlink="http://www.w3.org/1999/xlink" xmlns:figma="http://www.figma.com/figma/ns"><title>Logo</title><desc>Created using Figma</desc><g id="Canvas" transform="translate(-31 76)" figma:type="canvas"><rect x="31" y="-76" width="1000" height="1000" fill="#FFFFFF"/><mask id="mask0_alpha" mask-type="alpha"><path d="M 31 -76L 1031 -76L 1031 924L 31 924L 31 -76Z" fill="#FFFFFF"/></mask><g id="Logo" style="mix-blend-mode:normal;" mask="url(#mask0_alpha)" figma:type="frame"><g id="Logo" style="mix-blend-mode:normal;" figma:type="frame"><g id="Background" style="mix-blend-mode:normal;" figma:type="vector"><use xlink:href="#path0_fill" transform="translate(31 -76)" fill="url(#paint0_linear)" style="mix-blend-mode:normal;"/></g><g id="Vector" style="mix-blend-mode:normal;" figma:type="vector"><use xlink:href="#path1_fill" transform="translate(331 424)" fill="#D7D7D7" style="mix-blend-mode:normal;"/></g><g id="Vector" style="mix-blend-mode:normal;" figma:type="vector"><use xlink:href="#path2_fill" transform="translate(331 174)" fill="#F5F5F5" style="mix-blend-mode:normal;"/></g></g></g></g><defs><linearGradient id="paint0_linear" x1="0" y1="0" x2="1" y2="0" gradientUnits="userSpaceOnUse" gradientTransform="matrix(1020 1010 -1010 1020 0 0)"><stop offset="0" stop-color="#2FF699"/><stop offset="1" stop-color="#53C0FF"/></linearGradient><path id="path0_fill" fill-rule="evenodd" d="M 0 0L 1000 0L 1000 1000L 0 1000L 0 0Z"/><path id="path1_fill" d="M 400 250L 200 0L 17.75 232.25C 29.1151 243.615 44.5296 250 60.6023 250L 400 250Z"/><path id="path2_fill" fill-rule="evenodd" d="M 400 0L 50 0C 22.3858 0 0 22.3858 0 50L 0 439.398C 0 455.47 6.38487 470.885 17.75 482.25L 200 250L 400 0Z"/></defs></svg>
