<svg width="255" height="208" viewBox="0 0 255 208" version="1.1" xmlns="http://www.w3.org/2000/svg" xmlns:xlink="http://www.w3.org/1999/xlink" xmlns:figma="http://www.figma.com/figma/ns"><title>Twitter</title><desc>Created using Figma</desc><g id="Canvas" transform="translate(-12312 -3326)" figma:type="canvas"><g id="Twitter" style="mix-blend-mode:normal;" figma:type="frame"><g id="Vector" style="mix-blend-mode:normal;" figma:type="vector"><use xlink:href="#path0_fill" transform="translate(12312 3326)" fill="#00ACED" style="mix-blend-mode:normal;"/></g></g></g><defs><path id="path0_fill" d="M 255 24.531C 245.619 28.6926 235.535 31.504 224.953 32.7688C 235.753 26.2943 244.049 16.0421 247.956 3.825C 237.846 9.82133 226.65 14.1742 214.733 16.5202C 205.191 6.35205 191.594 0 176.547 0C 147.655 0 124.23 23.423 124.23 52.3145C 124.23 56.4149 124.692 60.4082 125.585 64.2371C 82.105 62.0555 43.5551 41.2271 17.7528 9.57525C 13.249 17.3018 10.6692 26.2892 10.6692 35.8772C 10.6692 54.0281 19.9049 70.0409 33.9434 79.4223C 25.3675 79.1507 17.3002 76.7971 10.2473 72.879C 10.2423 73.097 10.2423 73.3151 10.2423 73.5369C 10.2423 98.8843 28.2761 120.028 52.2083 124.836C 47.819 126.031 43.1971 126.671 38.4258 126.671C 35.0546 126.671 31.7773 126.342 28.5824 125.732C 35.2399 146.515 54.5606 161.642 77.4537 162.063C 59.549 176.095 36.9915 184.459 12.4801 184.459C 8.25712 184.459 4.09246 184.211 0 183.728C 23.1522 198.571 50.6519 207.233 80.196 207.233C 176.424 207.233 229.047 127.516 229.047 58.381C 229.047 56.1128 228.995 53.8573 228.894 51.6133C 239.117 44.2361 247.986 35.023 255 24.531Z"/></defs></svg>
